# xmcd
#
# Track frame offsets:
#	150
#	17290
#	32490
#	54202
#	71622
#	86507
#	101190
#	114235
#	129115
#	142325
#	159100
#	174212
#
# Disc length: 2516 seconds
#
# Revision: 0
# Processed by: cddbd v1.4PL0 Copyright (c) Steve Scherf et al.
# Submitted via: dBpowerAMP V4.0
#
DISCID=8709d20c
DTITLE=Wood Newton - Just for the love of it
DYEAR=1992
DGENRE=Country
TTITLE0=Daddy went to Heaven in a pickup truck
TTITLE1=Seventh Direction
TTITLE2=I can see Arkansas
TTITLE3=Just for the love of it
TTITLE4=Nouveau Blues
TTITLE5=Dixie Twister
TTITLE6=Lonestar Lonely
TTITLE7=It goes without saying
TTITLE8=Wake up heart
TTITLE9=Barefooted Boys
TTITLE10=Lady Luck
TTITLE11=Same ol' song and dance
EXTD=Arkansas native, Hampton\nFernie Bermudez Jr.
EXTT0=
EXTT1=
EXTT2=
EXTT3=
EXTT4=
EXTT5=
EXTT6=
EXTT7=
EXTT8=
EXTT9=
EXTT10=
EXTT11=
PLAYORDER=
